#define icon_border_width 32
#define icon_border_height 32
static unsigned char icon_border_bits[] = {
   0x00, 0x00, 0x00, 0x00, 0x00, 0x00, 0x00, 0x00, 0x00, 0x00, 0x00, 0x00,
   0x00, 0x00, 0x00, 0x00, 0x00, 0x00, 0x00, 0x00, 0x00, 0x00, 0x00, 0x00,
   0x00, 0x00, 0x00, 0x00, 0x00, 0x00, 0x00, 0x00, 0x80, 0x00, 0x00, 0x00,
   0x80, 0x00, 0x00, 0x00, 0x80, 0x00, 0x00, 0x00, 0xb8, 0xf6, 0x9a, 0x73,
   0x8c, 0x85, 0x56, 0x4a, 0x84, 0xe4, 0x52, 0x7a, 0x8c, 0x94, 0x52, 0x0a,
   0xb8, 0xe4, 0x92, 0x73, 0x00, 0x00, 0x00, 0x02, 0x00, 0x00, 0x80, 0x03,
   0x00, 0x00, 0x00, 0x00, 0x08, 0x00, 0x10, 0x00, 0x08, 0x00, 0x10, 0x00,
   0x08, 0x00, 0x10, 0x00, 0x38, 0xee, 0x9c, 0x3b, 0x48, 0x29, 0x52, 0x0a,
   0x48, 0x29, 0xd2, 0x0b, 0x48, 0x29, 0x52, 0x08, 0x38, 0x2e, 0x9c, 0x0b,
   0x00, 0x00, 0x00, 0x00, 0x00, 0x00, 0x00, 0x00, 0x00, 0x00, 0x00, 0x00,
   0x00, 0x00, 0x00, 0x00, 0x00, 0x00, 0x00, 0x00 };
