#define icon_grid_width 32
#define icon_grid_height 32
static unsigned char icon_grid_bits[] = {
   0x10, 0x04, 0x41, 0x10, 0x00, 0x00, 0x00, 0x00, 0x10, 0x04, 0x41, 0x10,
   0x00, 0x00, 0x00, 0x00, 0x55, 0x55, 0x55, 0x55, 0x00, 0x00, 0x00, 0x00,
   0x10, 0x04, 0x41, 0x10, 0x00, 0x00, 0x00, 0x00, 0x10, 0x04, 0x41, 0x10,
   0x00, 0x00, 0x00, 0x00, 0x55, 0x55, 0x55, 0x55, 0x00, 0x00, 0x00, 0x00,
   0x10, 0x04, 0x41, 0x10, 0x00, 0x00, 0x00, 0x00, 0x10, 0x04, 0x41, 0x10,
   0x00, 0x00, 0x00, 0x00, 0x55, 0x55, 0x55, 0x55, 0x00, 0x00, 0x00, 0x00,
   0x10, 0x04, 0x41, 0x10, 0x00, 0x00, 0x00, 0x00, 0x10, 0x04, 0x41, 0x10,
   0x00, 0x00, 0x00, 0x00, 0x55, 0x55, 0x55, 0x55, 0x00, 0x00, 0x00, 0x00,
   0x10, 0x04, 0x41, 0x10, 0x00, 0x00, 0x00, 0x00, 0x10, 0x04, 0x41, 0x10,
   0x00, 0x00, 0x00, 0x00, 0x55, 0x55, 0x55, 0x55, 0x00, 0x00, 0x00, 0x00,
   0x10, 0x04, 0x41, 0x10, 0x00, 0x00, 0x00, 0x00 };
