#define icon_bg_width 32
#define icon_bg_height 32
static unsigned char icon_bg_bits[] = {
   0x00, 0x00, 0x00, 0x00, 0x80, 0x00, 0x00, 0x00, 0x80, 0x00, 0x00, 0x00,
   0x80, 0x00, 0x00, 0x00, 0xb8, 0xf6, 0x9a, 0x73, 0x8c, 0x85, 0x56, 0x4a,
   0x84, 0xe4, 0x52, 0x7a, 0x8c, 0x94, 0x52, 0x0a, 0xb8, 0xe4, 0x92, 0x73,
   0x00, 0x00, 0x00, 0x02, 0x00, 0x00, 0x80, 0x03, 0x20, 0x00, 0x10, 0x00,
   0x20, 0x00, 0x10, 0x00, 0x20, 0x00, 0x10, 0x00, 0xe0, 0x1c, 0xd7, 0x00,
   0x20, 0xa1, 0x50, 0x00, 0x20, 0xbd, 0x30, 0x0c, 0x20, 0xa5, 0x50, 0x00,
   0xe0, 0x3c, 0x57, 0x00, 0x00, 0x00, 0x00, 0x00, 0x00, 0x00, 0x00, 0x00,
   0x00, 0x00, 0x00, 0x40, 0x00, 0x00, 0x00, 0x40, 0x00, 0x00, 0x00, 0x40,
   0x38, 0xe7, 0x52, 0x73, 0x24, 0x91, 0xd2, 0x4a, 0x24, 0x91, 0x52, 0x4a,
   0x24, 0x91, 0x52, 0x4a, 0x38, 0xe1, 0x5c, 0x72, 0x20, 0x00, 0x00, 0x00,
   0x38, 0x00, 0x00, 0x00, 0x00, 0x00, 0x00, 0x00 };
