#define icon_4x4_width 32
#define icon_4x4_height 32
static unsigned char icon_4x4_bits[] = {
   0x00, 0x00, 0x00, 0x00, 0x00, 0x00, 0x00, 0x00, 0x00, 0x00, 0x00, 0x00,
   0x00, 0x00, 0x00, 0x00, 0x00, 0x00, 0x00, 0x00, 0x00, 0x00, 0x00, 0x00,
   0x00, 0x00, 0x00, 0x00, 0x00, 0x00, 0x00, 0x00, 0x00, 0x00, 0x00, 0x00,
   0x80, 0x03, 0x00, 0x1c, 0xc0, 0x03, 0x00, 0x1e, 0xc0, 0x01, 0x00, 0x0e,
   0xa0, 0x71, 0x0c, 0x0d, 0x90, 0x69, 0x86, 0x0c, 0xd8, 0xe1, 0xc3, 0x0e,
   0xc8, 0xe1, 0x41, 0x0e, 0xc4, 0xc0, 0x20, 0x06, 0xfe, 0xe3, 0xf1, 0x1f,
   0xc0, 0xb0, 0x01, 0x06, 0xe0, 0x98, 0x03, 0x07, 0xf8, 0x8d, 0xc7, 0x0f,
   0x00, 0x00, 0x00, 0x00, 0x00, 0x00, 0x00, 0x00, 0x00, 0x00, 0x00, 0x00,
   0x00, 0x00, 0x00, 0x00, 0x00, 0x00, 0x00, 0x00, 0x00, 0x00, 0x00, 0x00,
   0x00, 0x00, 0x00, 0x00, 0x00, 0x00, 0x00, 0x00, 0x00, 0x00, 0x00, 0x00,
   0x00, 0x00, 0x00, 0x00, 0x00, 0x00, 0x00, 0x00 };
